<svg xmlns="http://www.w3.org/2000/svg" width="18.693" height="14.532" viewBox="0 0 18.693 14.532">
  <g id="_x31_1-DSLR_Camera" transform="translate(0 -34.2)">
    <path id="Path_10" data-name="Path 10" d="M17.331,36.143H12.382l-1-1.679a.542.542,0,0,0-.466-.265H7.775a.542.542,0,0,0-.466.265l-1,1.679H4.687v-.37a.542.542,0,0,0-.542-.542h-2a.542.542,0,0,0-.542.542v.37H1.362A1.362,1.362,0,0,0,0,37.506V47.37a1.362,1.362,0,0,0,1.362,1.362H17.331a1.362,1.362,0,0,0,1.362-1.362V37.506A1.362,1.362,0,0,0,17.331,36.143ZM9.346,46.316a3.878,3.878,0,1,1,3.878-3.878A3.878,3.878,0,0,1,9.346,46.316Zm7.134-7.364h-1.7a.542.542,0,0,1,0-1.084h1.7a.542.542,0,0,1,0,1.084Z" fill="#fff"/>
    <circle id="Ellipse_2" data-name="Ellipse 2" cx="2.709" cy="2.709" r="2.709" transform="translate(6.637 39.729)" fill="#fff"/>
  </g>
</svg>
