<svg xmlns="http://www.w3.org/2000/svg" width="16.924" height="15.61" viewBox="0 0 16.924 15.61">
  <g id="icon" transform="translate(0 -1.178)">
    <path id="Path_11" data-name="Path 11" d="M12.585,7.488s.684-.52.163-1.041-1.027.151-1.027.151L6.484,11.837s-1.227,1.583-2.159.626.625-2.16.625-2.16l6.867-6.867s1.6-1.765,3.109-.26-.266,3.112-.266,3.112L6.944,14s-2.469,2.852-4.754.566.595-4.727.595-4.727l5.858-5.86s.656-.548.165-1.041-1.04.165-1.04.165L1.045,9.83a3.975,3.975,0,0,0,.3,5.616,3.977,3.977,0,0,0,5.618.3L16.2,6.5a2.99,2.99,0,0,0-.355-4.244A2.989,2.989,0,0,0,11.6,1.9L3.65,9.852a2.277,2.277,0,0,0-.189,3.5,2.237,2.237,0,0,0,3.474-.218Z" transform="translate(0 0)" fill="#fff"/>
  </g>
</svg>
