<svg id="pokemon" xmlns="http://www.w3.org/2000/svg" xmlns:xlink="http://www.w3.org/1999/xlink" width="76" height="76" viewBox="0 0 76 76">
  <defs>
    <linearGradient id="linear-gradient" x1="-0.089" y1="1.249" x2="-0.047" y2="1.229" gradientUnits="objectBoundingBox">
      <stop offset="0" stop-color="#fff" stop-opacity="0.2"/>
      <stop offset="1" stop-color="#fff" stop-opacity="0"/>
    </linearGradient>
  </defs>
  <path id="Path_1" data-name="Path 1" d="M38,0A38,38,0,1,0,76,38,38.044,38.044,0,0,0,38,0Z" fill="#303c42"/>
  <path id="Path_2" data-name="Path 2" d="M57.175,21.333A34.88,34.88,0,0,1,91.832,52.7a95.246,95.246,0,0,1-18.986,1.871,15.744,15.744,0,0,0-31.344,0A95.246,95.246,0,0,1,22.517,52.7,34.88,34.88,0,0,1,57.175,21.333Z" transform="translate(-19.175 -18.166)" fill="#e53935"/>
  <circle id="Ellipse_1" data-name="Ellipse 1" cx="12.667" cy="12.667" r="12.667" transform="translate(25.333 25.333)" fill="#455a64"/>
  <path id="Path_3" data-name="Path 3" d="M56.166,289.329A34.873,34.873,0,0,1,21.333,254.5c0-.088.013-.174.013-.262a99.759,99.759,0,0,0,19.144,1.818,15.745,15.745,0,0,0,31.352,0,99.759,99.759,0,0,0,19.144-1.818c0,.088.013.174.013.262A34.873,34.873,0,0,1,56.166,289.329Z" transform="translate(-18.166 -216.496)" fill="#fff"/>
  <circle id="Ellipse_2" data-name="Ellipse 2" cx="10" cy="10" r="10" transform="translate(28 28)" fill="#303c42"/>
  <circle id="Ellipse_3" data-name="Ellipse 3" cx="6.333" cy="6.333" r="6.333" transform="translate(31.667 31.667)" fill="#f2f2f2"/>
  <path id="Path_4" data-name="Path 4" d="M214.586,221.579a6.316,6.316,0,0,1,10.928-4.333A6.327,6.327,0,1,0,215.072,224,6.294,6.294,0,0,1,214.586,221.579Z" transform="translate(-181.666 -181.666)" fill="#fff" opacity="0.2"/>
  <path id="Path_5" data-name="Path 5" d="M38,0A38,38,0,1,0,76,38,38.044,38.044,0,0,0,38,0Z" fill="url(#linear-gradient)"/>
  <path id="Path_6" data-name="Path 6" d="M419.914,107.364c3.124-.379,5.37-.812,6.642-1.093a34.763,34.763,0,0,0-10.969-22.026,33.9,33.9,0,0,1,4.328,23.119Z" transform="translate(-353.897 -71.74)" opacity="0.1"/>
  <path id="Path_7" data-name="Path 7" d="M118.357,254.234c-1.565.333-4.095.78-7.491,1.15a34.732,34.732,0,0,1-57.391,16.624,34.8,34.8,0,0,0,64.9-17.511C118.37,254.408,118.357,254.322,118.357,254.234Z" transform="translate(-45.536 -216.496)" opacity="0.1"/>
</svg>
