<svg id="smileys" xmlns="http://www.w3.org/2000/svg" width="18.659" height="18.696" viewBox="0 0 18.659 18.696">
  <g id="Group_5" data-name="Group 5">
    <g id="Group_4" data-name="Group 4">
      <path id="Path_12" data-name="Path 12" d="M9.329,0a9.348,9.348,0,1,0,9.329,9.348A9.349,9.349,0,0,0,9.329,0Zm0,17.917a8.569,8.569,0,1,1,8.552-8.569A8.57,8.57,0,0,1,9.329,17.917Z" fill="#fff"/>
      <path id="Path_13" data-name="Path 13" d="M120.04,298.693a.364.364,0,0,0-.439.312,4.276,4.276,0,0,1-8.514-.005.368.368,0,0,0-.439-.313.427.427,0,0,0-.271.506,4.988,4.988,0,0,0,9.934.007A.427.427,0,0,0,120.04,298.693Z" transform="translate(-106.016 -288.06)" fill="#fff"/>
      <circle id="Ellipse_3" data-name="Ellipse 3" cx="0.841" cy="0.841" r="0.841" transform="translate(5.402 6.187)" fill="#fff"/>
      <circle id="Ellipse_4" data-name="Ellipse 4" cx="0.841" cy="0.841" r="0.841" transform="translate(11.575 6.187)" fill="#fff"/>
    </g>
  </g>
</svg>
