<svg xmlns="http://www.w3.org/2000/svg" width="16.313" height="20.009" viewBox="0 0 16.313 20.009">
  <g id="music-and-multimedia" transform="translate(0 0)">
    <path id="Path_7" data-name="Path 7" d="M15.951,8.077H3.6l11.864-3.71a.369.369,0,0,0,.216-.187.418.418,0,0,0,.031-.3L15.089,1.57A2.054,2.054,0,0,0,13.151,0a1.869,1.869,0,0,0-.558.086L1.454,3.569A2.038,2.038,0,0,0,.252,4.61,2.313,2.313,0,0,0,.08,6.263l.607,2.26v9.311A2.1,2.1,0,0,0,2.7,20.009h4.35a.392.392,0,0,0,0-.782H2.7A1.346,1.346,0,0,1,1.41,17.835V12.516H15.589v5.318A1.346,1.346,0,0,1,14.3,19.228H9.948a.392.392,0,0,0,0,.782H14.3a2.1,2.1,0,0,0,2.015-2.175V8.468a.377.377,0,0,0-.362-.391ZM9.567,11.735l1.538-2.876h2l-1.538,2.876Zm-2.837,0L8.268,8.859h2L8.731,11.735Zm-2.837,0L5.431,8.859h2L5.894,11.735ZM5.239,6.675,2.664,4l1.93-.6a.382.382,0,0,0,.048.06L7.217,6.132l-1.93.6a.383.383,0,0,0-.048-.06Zm4.851-4.918,2.576,2.671-1.93.6a.375.375,0,0,0-.048-.06L8.113,2.3l1.93-.6A.382.382,0,0,0,10.091,1.757ZM7.366,2.61,9.942,5.28l-1.93.6a.375.375,0,0,0-.048-.06L5.388,3.153l1.93-.6A.406.406,0,0,0,7.366,2.61ZM12.795.837a1.193,1.193,0,0,1,.356-.055,1.317,1.317,0,0,1,1.243,1.005l.52,1.938-1.453.454a.391.391,0,0,0-.048-.06l-2.576-2.67ZM.886,4.987a1.305,1.305,0,0,1,.77-.667l.213-.067a.391.391,0,0,0,.048.06L4.492,6.984l-3.2,1L.775,6.046A1.481,1.481,0,0,1,.886,4.987ZM1.41,8.859H4.6L3.057,11.735H1.41ZM12.4,11.735l1.538-2.876h1.647v2.876Zm0,0" transform="translate(0)" fill="#fff" fill-rule="evenodd"/>
    <path id="Path_8" data-name="Path 8" d="M200.62,346.955a.422.422,0,0,0-.211-.366l-3.709-2.141a.422.422,0,0,0-.633.366V349.1a.422.422,0,0,0,.633.365l3.709-2.141A.422.422,0,0,0,200.62,346.955Zm-3.709,1.41v-2.82l2.443,1.41Zm0,0" transform="translate(-189.339 -331.458)" fill="#fff" fill-rule="evenodd"/>
    <path id="Path_9" data-name="Path 9" d="M225.2,492a.422.422,0,1,0,.422.422A.423.423,0,0,0,225.2,492Zm0,0" transform="translate(-216.698 -472.835)" fill="#fff" fill-rule="evenodd"/>
  </g>
</svg>
